<?xml version="1.0" standalone="no"?>
<!DOCTYPE svg PUBLIC "-//W3C//DTD SVG 20010904//EN"
 "http://www.w3.org/TR/2001/REC-SVG-20010904/DTD/svg10.dtd">
<svg version="1.0" xmlns="http://www.w3.org/2000/svg"
 width="700.000000pt" height="700.000000pt" viewBox="0 0 700.000000 700.000000"
 preserveAspectRatio="xMidYMid meet">
<metadata>
Created by potrace 1.11, written by Peter Selinger 2001-2013
</metadata>
<g transform="translate(0.000000,700.000000) scale(0.100000,-0.100000)"
fill="#000000" stroke="none">
<path d="M6225 6990 c-261 -48 -469 -247 -528 -505 -24 -102 -17 -248 16 -349
l26 -79 -744 -743 -743 -744 -59 39 c-79 52 -211 106 -308 126 -74 15 -259 22
-311 11 -12 -2 -37 -7 -55 -10 -100 -16 -273 -89 -348 -148 l-25 -19 -602 602
-603 603 18 46 c24 62 24 178 0 247 -56 163 -201 268 -374 268 -116 0 -194
-33 -275 -114 -65 -65 -93 -115 -109 -193 -43 -205 66 -392 269 -462 50 -17
184 -15 247 4 l43 12 598 -599 599 -599 -24 -34 c-65 -94 -133 -269 -149 -385
-31 -224 24 -470 144 -644 l30 -45 -928 -928 -928 -928 -72 50 c-157 107 -362
141 -553 89 -161 -43 -329 -184 -404 -339 -55 -114 -73 -199 -68 -325 6 -149
49 -266 141 -381 274 -343 805 -326 1055 34 82 117 119 244 114 392 -4 111
-10 146 -36 214 l-20 50 943 943 c893 893 944 942 963 928 87 -62 234 -126
337 -147 l64 -13 0 -802 0 -803 -51 -15 c-175 -55 -325 -180 -403 -335 -96
-193 -97 -404 -1 -598 50 -99 150 -208 244 -265 363 -217 833 -45 969 355 23
68 27 93 31 185 12 290 -171 554 -449 648 l-71 24 -3 804 -2 804 43 6 c87 12
228 69 320 129 l59 38 599 -598 c502 -503 598 -603 594 -622 -2 -13 -10 -39
-16 -58 -15 -45 -14 -151 1 -199 36 -109 98 -188 191 -240 63 -36 101 -46 189
-48 124 -4 240 54 317 158 162 221 57 533 -207 613 -62 19 -162 17 -227 -3
l-54 -17 -601 601 -601 601 25 33 c67 92 129 251 149 384 16 98 5 283 -21 374
-25 89 -77 203 -120 268 l-32 46 714 716 c392 394 721 722 731 729 16 11 27 7
85 -32 127 -84 245 -117 402 -112 337 10 615 288 625 625 5 156 -27 275 -107
396 -94 141 -236 238 -413 282 -35 8 -208 11 -250 3z"/>
</g>
</svg>
